# xmcd
#
# Track frame offsets:
# 150
# 25641
# 40974
# 61329
# 103047
# 121467
# 147058
#
# Disc length: 2338 seconds
#
# Revision: 0
# Processed by: cddbd v1.4PL0 Copyright (c) Steve Scherf et al.
# Submitted via: Audion 3.0.2 (http://www.panic.com/audion/)
#
DISCID=58092007
DTITLE=Dave Tofani - An American Garden
DYEAR=1900
DGENRE=
TTITLE0=An American Garden
TTITLE1=New York at Night
TTITLE2=Quintetto di Flauti
TTITLE3=High Mowing Orchestral Suite
TTITLE4=Elizabeth's Journey
TTITLE5=Rough Ride
TTITLE6=Liberte
EXTD=
EXTT0=
EXTT1=
EXTT2=
EXTT3=
EXTT4=
EXTT5=
EXTT6=
PLAYORDER=
